<svg id="visual" viewBox="0 0 900 675" width="900" height="675" xmlns="http://www.w3.org/2000/svg" xmlns:xlink="http://www.w3.org/1999/xlink" version="1.1"><rect x="0" y="0" width="900" height="675" fill="#FFFFFF"></rect><defs><linearGradient id="grad1_0" x1="25%" y1="0%" x2="100%" y2="100%"><stop offset="23.333333333333336%" stop-color="#ffffff" stop-opacity="1"></stop><stop offset="76.66666666666666%" stop-color="#ffffff" stop-opacity="1"></stop></linearGradient></defs><defs><linearGradient id="grad2_0" x1="0%" y1="0%" x2="75%" y2="100%"><stop offset="23.333333333333336%" stop-color="#ffffff" stop-opacity="1"></stop><stop offset="76.66666666666666%" stop-color="#ffffff" stop-opacity="1"></stop></linearGradient></defs><g transform="translate(900, 0)"><path d="M0 506.3C-32.1 489.2 -64.2 472.2 -89.7 451.2C-115.3 430.1 -134.2 404.9 -167.2 403.7C-200.2 402.6 -247.3 425.4 -281.3 420.9C-315.3 416.5 -336.2 384.6 -354.3 354.3C-372.3 323.9 -387.4 294.9 -392.5 262.2C-397.5 229.5 -392.6 193.1 -394.5 163.4C-396.3 133.7 -404.9 110.6 -424.7 84.5C-444.4 58.4 -475.3 29.2 -506.2 0L0 0Z" fill="#FF6363"></path></g><g transform="translate(0, 675)"><path d="M0 -506.2C31.1 -488.5 62.2 -470.8 91.7 -461C121.2 -451.2 149.1 -449.3 186.7 -450.9C224.4 -452.4 271.8 -457.4 281.3 -420.9C290.7 -384.5 262.2 -306.7 275.8 -275.8C289.4 -244.9 345.2 -260.8 375.8 -251.1C406.5 -241.4 412.1 -206 425.9 -176.4C439.8 -146.9 461.9 -123.2 476.7 -94.8C491.4 -66.4 498.8 -33.2 506.3 0L0 0Z" fill="#FF6363"></path></g></svg>