<svg id="visual" viewBox="0 0 960 540" width="960" height="540" xmlns="http://www.w3.org/2000/svg" xmlns:xlink="http://www.w3.org/1999/xlink" version="1.1"><path d="M0 60L87 60L87 44L175 44L175 66L262 66L262 77L349 77L349 77L436 77L436 71L524 71L524 87L611 87L611 77L698 77L698 93L785 93L785 33L873 33L873 77L960 77L960 77L960 0L960 0L873 0L873 0L785 0L785 0L698 0L698 0L611 0L611 0L524 0L524 0L436 0L436 0L349 0L349 0L262 0L262 0L175 0L175 0L87 0L87 0L0 0Z" fill="#fa7268"></path><path d="M0 163L87 163L87 125L175 125L175 147L262 147L262 141L349 141L349 120L436 120L436 141L524 141L524 190L611 190L611 141L698 141L698 158L785 158L785 77L873 77L873 185L960 185L960 152L960 75L960 75L873 75L873 31L785 31L785 91L698 91L698 75L611 75L611 85L524 85L524 69L436 69L436 75L349 75L349 75L262 75L262 64L175 64L175 42L87 42L87 58L0 58Z" fill="#ea5e66"></path><path d="M0 217L87 217L87 239L175 239L175 206L262 206L262 206L349 206L349 206L436 206L436 233L524 233L524 260L611 260L611 260L698 260L698 249L785 249L785 222L873 222L873 287L960 287L960 266L960 150L960 183L873 183L873 75L785 75L785 156L698 156L698 139L611 139L611 188L524 188L524 139L436 139L436 118L349 118L349 139L262 139L262 145L175 145L175 123L87 123L87 161L0 161Z" fill="#d84a64"></path><path d="M0 401L87 401L87 444L175 444L175 422L262 422L262 303L349 303L349 341L436 341L436 320L524 320L524 433L611 433L611 336L698 336L698 422L785 422L785 384L873 384L873 401L960 401L960 336L960 264L960 285L873 285L873 220L785 220L785 247L698 247L698 258L611 258L611 258L524 258L524 231L436 231L436 204L349 204L349 204L262 204L262 204L175 204L175 237L87 237L87 215L0 215Z" fill="#c53762"></path><path d="M0 541L87 541L87 541L175 541L175 541L262 541L262 541L349 541L349 541L436 541L436 541L524 541L524 541L611 541L611 541L698 541L698 541L785 541L785 541L873 541L873 541L960 541L960 541L960 334L960 399L873 399L873 382L785 382L785 420L698 420L698 334L611 334L611 431L524 431L524 318L436 318L436 339L349 339L349 301L262 301L262 420L175 420L175 442L87 442L87 399L0 399Z" fill="#b0235f"></path></svg>